<svg width="20" height="20" viewBox="0 0 20 20" fill="none" xmlns="http://www.w3.org/2000/svg">
<path d="M14.3147 7.69016C14.1428 7.51391 13.9097 7.41489 13.6666 7.41489C13.4236 7.41489 13.1905 7.51391 13.0186 7.69016L10.9166 9.84597V1.77367C10.9166 1.52432 10.8201 1.28518 10.6482 1.10887C10.4763 0.932549 10.2431 0.833496 9.99998 0.833496C9.75686 0.833496 9.52371 0.932549 9.3518 1.10887C9.17989 1.28518 9.08331 1.52432 9.08331 1.77367V9.84597L6.9814 7.69016C6.89684 7.60037 6.79569 7.52874 6.68385 7.47947C6.57201 7.43019 6.45173 7.40426 6.33001 7.40317C6.2083 7.40209 6.08759 7.42588 5.97494 7.47315C5.86228 7.52042 5.75994 7.59023 5.67387 7.67851C5.5878 7.76678 5.51973 7.87176 5.47364 7.9873C5.42755 8.10284 5.40436 8.22664 5.40542 8.35148C5.40647 8.47631 5.43176 8.59968 5.4798 8.71439C5.52784 8.82909 5.59768 8.93284 5.68523 9.01956L9.3519 12.7802C9.43705 12.8678 9.5382 12.9373 9.64957 12.9847C9.76093 13.0321 9.88032 13.0565 10.0009 13.0565C10.1215 13.0565 10.2409 13.0321 10.3522 12.9847C10.4636 12.9373 10.5647 12.8678 10.6499 12.7802L14.3166 9.01956C14.4882 8.84301 14.5844 8.60377 14.584 8.35447C14.5837 8.10517 14.4868 7.86622 14.3147 7.69016Z" fill="#6B7280"/>
<path d="M17.3333 11.6455H14.9958L12.2687 14.4425C11.9708 14.7481 11.6171 14.9905 11.2278 15.1559C10.8386 15.3213 10.4213 15.4064 9.99998 15.4064C9.57863 15.4064 9.1614 15.3213 8.77213 15.1559C8.38285 14.9905 8.02915 14.7481 7.73123 14.4425L5.00415 11.6455H2.66665C2.18042 11.6455 1.7141 11.8436 1.37028 12.1962C1.02647 12.5488 0.833313 13.0271 0.833313 13.5258V17.2865C0.833313 17.7852 1.02647 18.2635 1.37028 18.6161C1.7141 18.9687 2.18042 19.1668 2.66665 19.1668H17.3333C17.8195 19.1668 18.2859 18.9687 18.6297 18.6161C18.9735 18.2635 19.1666 17.7852 19.1666 17.2865V13.5258C19.1666 13.0271 18.9735 12.5488 18.6297 12.1962C18.2859 11.8436 17.8195 11.6455 17.3333 11.6455ZM15.0416 17.2865C14.7697 17.2865 14.5039 17.2038 14.2777 17.0488C14.0516 16.8939 13.8754 16.6736 13.7713 16.4159C13.6672 16.1582 13.64 15.8747 13.6931 15.6011C13.7461 15.3275 13.8771 15.0763 14.0694 14.879C14.2617 14.6818 14.5067 14.5475 14.7734 14.4931C15.0401 14.4387 15.3166 14.4666 15.5678 14.5733C15.8191 14.6801 16.0338 14.8608 16.1849 15.0927C16.336 15.3246 16.4166 15.5973 16.4166 15.8762C16.4166 16.2503 16.2718 16.609 16.0139 16.8734C15.7561 17.1379 15.4063 17.2865 15.0416 17.2865Z" fill="#6B7280"/>
</svg>
