<svg width="22" height="22" viewBox="0 0 22 22" fill="none" xmlns="http://www.w3.org/2000/svg">
<path d="M15.5907 3.39062L14.2737 4.78174L17.3057 7.98423L18.6219 6.59311C18.821 6.38285 18.979 6.13322 19.0868 5.85847C19.1945 5.58373 19.25 5.28925 19.25 4.99186C19.25 4.69447 19.1945 4.4 19.0868 4.12525C18.979 3.85051 18.821 3.60088 18.6219 3.39062C18.2134 2.97939 17.6707 2.75 17.1063 2.75C16.542 2.75 15.9993 2.97939 15.5907 3.39062Z" fill="#6B7280"/>
<path d="M16.0932 9.26486L13.0612 6.06238L9.00959 10.3381C8.88972 10.4645 8.80797 10.6255 8.77464 10.8009L8.32361 13.2028C8.29586 13.349 8.30274 13.5002 8.34364 13.643C8.38454 13.7858 8.45819 13.9157 8.55804 14.0211C8.6579 14.1266 8.78088 14.2044 8.91605 14.2476C9.05122 14.2908 9.19439 14.2981 9.33286 14.2688L11.6069 13.7887C11.7726 13.7534 11.9248 13.667 12.0442 13.5406L16.0932 9.26486Z" fill="#6B7280"/>
<path d="M9.00959 10.3381C8.88972 10.4645 8.80797 10.6255 8.77464 10.8009L8.32361 13.2028C8.29586 13.349 8.30274 13.5002 8.34364 13.643C8.38454 13.7858 8.45819 13.9157 8.55804 14.0211C8.6579 14.1266 8.78088 14.2044 8.91605 14.2476C9.05122 14.2908 9.19439 14.2981 9.33286 14.2688L11.6069 13.7887C11.7726 13.7534 11.9248 13.667 12.0442 13.5406L16.0932 9.26486L13.0612 6.06238L9.00959 10.3381Z" fill="#6B7280"/>
<path d="M12.8622 14.5984C12.6226 14.851 12.3178 15.0234 11.9859 15.0938L8.95386 15.7341C8.67707 15.7925 8.39091 15.7779 8.12077 15.6914C7.85064 15.605 7.60487 15.4495 7.40529 15.2387C7.2057 15.0279 7.05847 14.7683 6.97664 14.483C6.89481 14.1977 6.88092 13.8954 6.93621 13.6031L7.54245 10.4006C7.60915 10.05 7.77231 9.72805 8.01149 9.47499L12.2303 5.01904C12.2068 4.9346 12.1947 4.8471 12.1943 4.75911H4.60816C4.11548 4.75959 3.64312 4.96651 3.29474 5.33447C2.94637 5.70243 2.75045 6.20135 2.75 6.72172V17.2874C2.75045 17.8078 2.94637 18.3067 3.29474 18.6746C3.64312 19.0426 4.11548 19.2495 4.60816 19.25H14.6115C15.1042 19.2495 15.5765 19.0426 15.9249 18.6746C16.2733 18.3067 16.4692 17.8078 16.4697 17.2874V10.7882L12.8622 14.5984Z" fill="#6B7280"/>
</svg>
