<svg width="15" height="12" viewBox="0 0 15 12" fill="none" xmlns="http://www.w3.org/2000/svg">
<path d="M7.5 6.6398L14.4562 1.0804C14.1891 0.86859 13.8505 0.751582 13.5 0.75H1.5C1.14951 0.751582 0.81086 0.86859 0.54375 1.0804L7.5 6.6398Z" fill="#3F83F8"/>
<path d="M8.4375 7.7339C8.16454 7.92877 7.8309 8.03519 7.48725 8.037C7.167 8.03761 6.85526 7.94079 6.59925 7.7612L0 2.4888V9.85C0 10.2213 0.158035 10.5774 0.43934 10.8399C0.720644 11.1025 1.10218 11.25 1.5 11.25H13.5C13.8978 11.25 14.2794 11.1025 14.5607 10.8399C14.842 10.5774 15 10.2213 15 9.85V2.4888L8.4375 7.7339Z" fill="#3F83F8"/>
</svg>
