<svg width="12" height="15" viewBox="0 0 12 15" fill="none" xmlns="http://www.w3.org/2000/svg">
<path d="M3.75007 3.75V0.0975001C3.3841 0.198734 3.05022 0.392147 2.78034 0.65925L0.659406 2.78025C0.392843 3.05055 0.199521 3.38429 0.0976725 3.75H3.75007Z" fill="#6B7280"/>
<path d="M10.5494 0H5.25002V3.75C5.25002 4.14782 5.09199 4.52936 4.81069 4.81066C4.5294 5.09196 4.14788 5.25 3.75007 5.25H0.000175278V13.5C-0.00584562 13.8911 0.143461 14.2686 0.41536 14.5498C0.687258 14.831 1.05956 14.9929 1.45063 15H10.5494C10.9404 14.9929 11.3127 14.831 11.5846 14.5498C11.8565 14.2686 12.0058 13.8911 11.9998 13.5V1.5C12.0058 1.1089 11.8565 0.731364 11.5846 0.450178C11.3127 0.168993 10.9404 0.00710158 10.5494 0Z" fill="#6B7280"/>
</svg>
