<svg width="18" height="19" viewBox="0 0 18 19" fill="none" xmlns="http://www.w3.org/2000/svg">
<path d="M15 2.75H3C2.60218 2.75 2.22064 2.90804 1.93934 3.18934C1.65804 3.47064 1.5 3.85218 1.5 4.25V14.75C1.5 15.1478 1.65804 15.5294 1.93934 15.8107C2.22064 16.092 2.60218 16.25 3 16.25H15C15.3978 16.25 15.7794 16.092 16.0607 15.8107C16.342 15.5294 16.5 15.1478 16.5 14.75V4.25C16.5 3.85218 16.342 3.47064 16.0607 3.18934C15.7794 2.90804 15.3978 2.75 15 2.75ZM10.875 5.75C11.0975 5.75 11.315 5.81598 11.5 5.9396C11.685 6.06321 11.8292 6.23891 11.9144 6.44448C11.9995 6.65005 12.0218 6.87625 11.9784 7.09448C11.935 7.31271 11.8278 7.51316 11.6705 7.6705C11.5132 7.82783 11.3127 7.93498 11.0945 7.97838C10.8762 8.02179 10.65 7.99951 10.4445 7.91436C10.2389 7.82922 10.0632 7.68502 9.9396 7.50002C9.81598 7.31501 9.75 7.0975 9.75 6.875C9.75 6.57663 9.86853 6.29048 10.0795 6.0795C10.2905 5.86853 10.5766 5.75 10.875 5.75ZM14.157 13.6108C14.0924 13.7285 13.9973 13.8268 13.8818 13.8953C13.7662 13.9637 13.6343 13.9999 13.5 14H4.5C4.37214 14.0001 4.24639 13.9674 4.1347 13.9052C4.023 13.843 3.92906 13.7533 3.8618 13.6445C3.79454 13.5358 3.7562 13.4117 3.75042 13.2839C3.74463 13.1562 3.7716 13.0291 3.82875 12.9147L6.45375 7.66475C6.51418 7.54365 6.60625 7.44116 6.7202 7.36814C6.83415 7.29513 6.96573 7.2543 7.101 7.25C7.23744 7.24241 7.37324 7.2736 7.49269 7.33996C7.61214 7.40632 7.71036 7.50515 7.776 7.625L9.85725 11.1927L11.0168 9.7775C11.0921 9.68577 11.1881 9.61322 11.2969 9.56582C11.4057 9.51843 11.5242 9.49753 11.6427 9.50485C11.7611 9.51217 11.8762 9.5475 11.9783 9.60794C12.0805 9.66838 12.1668 9.75219 12.2302 9.8525L14.136 12.8525C14.2066 12.9656 14.2457 13.0955 14.2494 13.2288C14.2531 13.3621 14.2212 13.4939 14.157 13.6108Z" fill="#6B7280"/>
</svg>
