<svg width="12" height="12" viewBox="0 0 12 12" fill="none" xmlns="http://www.w3.org/2000/svg">
<path d="M5.99999 0.166504C4.84627 0.166504 3.71845 0.508623 2.75917 1.1496C1.79988 1.79057 1.05221 2.70161 0.610695 3.76752C0.169184 4.83342 0.0536646 6.00631 0.278745 7.13786C0.503825 8.26942 1.0594 9.30882 1.8752 10.1246C2.69101 10.9404 3.73041 11.496 4.86196 11.7211C5.99352 11.9462 7.16641 11.8306 8.23231 11.3891C9.29821 10.9476 10.2093 10.1999 10.8502 9.24066C11.4912 8.28137 11.8333 7.15356 11.8333 5.99984C11.8316 4.45326 11.2165 2.97052 10.1229 1.87692C9.02931 0.783329 7.54657 0.168202 5.99999 0.166504ZM5.99999 8.9165C5.88462 8.9165 5.77184 8.88229 5.67591 8.81819C5.57998 8.7541 5.50521 8.66299 5.46106 8.5564C5.41691 8.44981 5.40536 8.33252 5.42787 8.21937C5.45037 8.10621 5.50593 8.00227 5.58751 7.92069C5.66909 7.83911 5.77303 7.78355 5.88619 7.76104C5.99934 7.73853 6.11663 7.75009 6.22322 7.79424C6.32981 7.83839 6.42092 7.91316 6.48501 8.00909C6.54911 8.10501 6.58332 8.2178 6.58332 8.33317C6.58332 8.48788 6.52187 8.63625 6.41247 8.74565C6.30307 8.85504 6.1547 8.9165 5.99999 8.9165ZM6.58332 6.58317C6.58332 6.73788 6.52187 6.88625 6.41247 6.99565C6.30307 7.10504 6.1547 7.1665 5.99999 7.1665C5.84528 7.1665 5.69691 7.10504 5.58751 6.99565C5.47812 6.88625 5.41666 6.73788 5.41666 6.58317V3.6665C5.41666 3.51179 5.47812 3.36342 5.58751 3.25402C5.69691 3.14463 5.84528 3.08317 5.99999 3.08317C6.1547 3.08317 6.30307 3.14463 6.41247 3.25402C6.52187 3.36342 6.58332 3.51179 6.58332 3.6665V6.58317Z" fill="#9B1C1C"/>
</svg>
