<svg width="18" height="18" viewBox="0 0 18 18" fill="none" xmlns="http://www.w3.org/2000/svg">
<path d="M9 1.5C7.51664 1.5 6.06659 1.93987 4.83323 2.76398C3.59986 3.58809 2.63856 4.75943 2.07091 6.12987C1.50325 7.50032 1.35472 9.00832 1.64411 10.4632C1.9335 11.918 2.64781 13.2544 3.6967 14.3033C4.7456 15.3522 6.08197 16.0665 7.53683 16.3559C8.99168 16.6453 10.4997 16.4967 11.8701 15.9291C13.2406 15.3614 14.4119 14.4001 15.236 13.1668C16.0601 11.9334 16.5 10.4834 16.5 9C16.4978 7.01154 15.7069 5.10516 14.3009 3.69911C12.8948 2.29306 10.9885 1.50218 9 1.5ZM8.625 4.5C8.84751 4.5 9.06501 4.56598 9.25002 4.6896C9.43502 4.81321 9.57922 4.98891 9.66437 5.19448C9.74952 5.40005 9.77179 5.62625 9.72839 5.84448C9.68498 6.0627 9.57783 6.26316 9.4205 6.42049C9.26316 6.57783 9.06271 6.68497 8.84448 6.72838C8.62625 6.77179 8.40005 6.74951 8.19448 6.66436C7.98892 6.57921 7.81322 6.43502 7.6896 6.25001C7.56598 6.06501 7.5 5.8475 7.5 5.625C7.5 5.32663 7.61853 5.04048 7.82951 4.8295C8.04049 4.61853 8.32663 4.5 8.625 4.5ZM10.5 12.75H7.5C7.30109 12.75 7.11032 12.671 6.96967 12.5303C6.82902 12.3897 6.75 12.1989 6.75 12C6.75 11.8011 6.82902 11.6103 6.96967 11.4697C7.11032 11.329 7.30109 11.25 7.5 11.25H8.25V9H7.5C7.30109 9 7.11032 8.92098 6.96967 8.78033C6.82902 8.63968 6.75 8.44891 6.75 8.25C6.75 8.05109 6.82902 7.86032 6.96967 7.71967C7.11032 7.57902 7.30109 7.5 7.5 7.5H9C9.19891 7.5 9.38968 7.57902 9.53033 7.71967C9.67098 7.86032 9.75 8.05109 9.75 8.25V11.25H10.5C10.6989 11.25 10.8897 11.329 11.0303 11.4697C11.171 11.6103 11.25 11.8011 11.25 12C11.25 12.1989 11.171 12.3897 11.0303 12.5303C10.8897 12.671 10.6989 12.75 10.5 12.75Z" fill="#C81E1E"/>
</svg>
