<svg width="19" height="18" viewBox="0 0 19 18" fill="none" xmlns="http://www.w3.org/2000/svg">
<path d="M9.19766 11.0835C9.51146 11.3963 9.93648 11.5719 10.3796 11.5719C10.8227 11.5719 11.2477 11.3963 11.5615 11.0835L12.1524 10.4926C12.4662 10.1799 12.8912 10.0042 13.3343 10.0042C13.7774 10.0042 14.2024 10.1799 14.5162 10.4926L15.6981 11.6744C15.8709 11.819 16.0099 11.9998 16.1052 12.204C16.2006 12.4082 16.25 12.6308 16.25 12.8561C16.25 13.0814 16.2006 13.304 16.1052 13.5082C16.0099 13.7124 15.8709 13.8932 15.6981 14.0378C12.6032 17.1331 9.04064 15.6627 5.93645 12.559C2.83227 9.45526 1.36924 5.89659 4.46498 2.80131C4.60975 2.62868 4.79059 2.48986 4.99478 2.39461C5.19898 2.29936 5.42156 2.25 5.64688 2.25C5.87221 2.25 6.09479 2.29936 6.29898 2.39461C6.50318 2.48986 6.68402 2.62868 6.82879 2.80131L8.01069 3.98304C8.32372 4.29668 8.49952 4.72167 8.49952 5.16476C8.49952 5.60785 8.32372 6.03284 8.01069 6.34649L7.41974 6.93735C7.10671 7.25099 6.93091 7.67598 6.93091 8.11907C6.93091 8.56216 7.10671 8.98715 7.41974 9.30079L9.19766 11.0835Z" fill="#3F83F8"/>
</svg>
