<svg width="22" height="22" viewBox="0 0 22 22" fill="none" xmlns="http://www.w3.org/2000/svg">
<path d="M6.41665 20.1668H15.5833C15.8264 20.1668 16.0596 20.0703 16.2315 19.8983C16.4034 19.7264 16.5 19.4933 16.5 19.2502V14.6668H5.49998V19.2502C5.49998 19.4933 5.59656 19.7264 5.76847 19.8983C5.94037 20.0703 6.17353 20.1668 6.41665 20.1668Z" fill="#6B7280"/>
<path d="M18.3333 8.25016H3.66665C3.18042 8.25016 2.7141 8.44332 2.37028 8.78713C2.02647 9.13095 1.83331 9.59727 1.83331 10.0835V15.5835C1.83331 16.0697 2.02647 16.536 2.37028 16.8799C2.7141 17.2237 3.18042 17.4168 3.66665 17.4168V14.6668C3.66665 14.1806 3.8598 13.7143 4.20362 13.3705C4.54743 13.0267 5.01375 12.8335 5.49998 12.8335H16.5C16.9862 12.8335 17.4525 13.0267 17.7963 13.3705C18.1402 13.7143 18.3333 14.1806 18.3333 14.6668V17.4168C18.8195 17.4168 19.2859 17.2237 19.6297 16.8799C19.9735 16.536 20.1666 16.0697 20.1666 15.5835V10.0835C20.1666 9.59727 19.9735 9.13095 19.6297 8.78713C19.2859 8.44332 18.8195 8.25016 18.3333 8.25016Z" fill="#6B7280"/>
<path d="M17.4166 6.41683V3.66683C17.4166 3.1806 17.2235 2.71428 16.8797 2.37047C16.5359 2.02665 16.0695 1.8335 15.5833 1.8335H6.41665C5.93042 1.8335 5.4641 2.02665 5.12028 2.37047C4.77647 2.71428 4.58331 3.1806 4.58331 3.66683V6.41683H17.4166Z" fill="#6B7280"/>
</svg>
