<svg width="18" height="19" viewBox="0 0 18 19" fill="none" xmlns="http://www.w3.org/2000/svg">
<path d="M4.83333 9.99984H9V14.1665M1.50833 9.99984H1.5M5.675 14.1665H5.66667M9.00833 17.4998H9M16.5083 9.99984H16.5M1.5 14.1665H2.75M11.9167 9.99984H13.5833M1.5 17.4998H5.66667M9 1.6665V6.6665M13.6667 17.4998H15.1667C15.6334 17.4998 15.8667 17.4998 16.045 17.409C16.2018 17.3291 16.3293 17.2016 16.4092 17.0448C16.5 16.8666 16.5 16.6332 16.5 16.1665V14.6665C16.5 14.1998 16.5 13.9664 16.4092 13.7882C16.3293 13.6314 16.2018 13.5039 16.045 13.424C15.8667 13.3332 15.6334 13.3332 15.1667 13.3332H13.6667C13.2 13.3332 12.9666 13.3332 12.7883 13.424C12.6315 13.5039 12.5041 13.6314 12.4242 13.7882C12.3333 13.9664 12.3333 14.1998 12.3333 14.6665V16.1665C12.3333 16.6332 12.3333 16.8666 12.4242 17.0448C12.5041 17.2016 12.6315 17.3291 12.7883 17.409C12.9666 17.4998 13.2 17.4998 13.6667 17.4998ZM13.6667 6.6665H15.1667C15.6334 6.6665 15.8667 6.6665 16.045 6.57568C16.2018 6.49578 16.3293 6.3683 16.4092 6.2115C16.5 6.03324 16.5 5.79988 16.5 5.33317V3.83317C16.5 3.36646 16.5 3.1331 16.4092 2.95485C16.3293 2.79804 16.2018 2.67056 16.045 2.59067C15.8667 2.49984 15.6334 2.49984 15.1667 2.49984H13.6667C13.2 2.49984 12.9666 2.49984 12.7883 2.59067C12.6315 2.67056 12.5041 2.79804 12.4242 2.95485C12.3333 3.1331 12.3333 3.36646 12.3333 3.83317V5.33317C12.3333 5.79988 12.3333 6.03324 12.4242 6.2115C12.5041 6.3683 12.6315 6.49578 12.7883 6.57568C12.9666 6.6665 13.2 6.6665 13.6667 6.6665ZM2.83333 6.6665H4.33333C4.80004 6.6665 5.0334 6.6665 5.21166 6.57568C5.36846 6.49578 5.49594 6.3683 5.57584 6.2115C5.66667 6.03324 5.66667 5.79988 5.66667 5.33317V3.83317C5.66667 3.36646 5.66667 3.1331 5.57584 2.95485C5.49594 2.79804 5.36846 2.67056 5.21166 2.59067C5.0334 2.49984 4.80004 2.49984 4.33333 2.49984H2.83333C2.36662 2.49984 2.13327 2.49984 1.95501 2.59067C1.79821 2.67056 1.67072 2.79804 1.59083 2.95485C1.5 3.1331 1.5 3.36646 1.5 3.83317V5.33317C1.5 5.79988 1.5 6.03324 1.59083 6.2115C1.67072 6.3683 1.79821 6.49578 1.95501 6.57568C2.13327 6.6665 2.36662 6.6665 2.83333 6.6665Z" stroke="#1E429F" stroke-width="1.5" stroke-linecap="round" stroke-linejoin="round"/>
</svg>
