<svg width="21" height="21" viewBox="0 0 21 21" fill="none" xmlns="http://www.w3.org/2000/svg">
<path d="M6.33331 7.16683H4.66665C4.44563 7.16683 4.23367 7.07903 4.07739 6.92275C3.92111 6.76647 3.83331 6.55451 3.83331 6.3335V4.66683C3.83331 4.44582 3.92111 4.23385 4.07739 4.07757C4.23367 3.92129 4.44563 3.8335 4.66665 3.8335H6.33331C6.55433 3.8335 6.76629 3.92129 6.92257 4.07757C7.07885 4.23385 7.16665 4.44582 7.16665 4.66683V6.3335C7.16665 6.55451 7.07885 6.76647 6.92257 6.92275C6.76629 7.07903 6.55433 7.16683 6.33331 7.16683Z" fill="white"/>
<path d="M16.3333 7.16683H14.6666C14.4456 7.16683 14.2337 7.07903 14.0774 6.92275C13.9211 6.76647 13.8333 6.55451 13.8333 6.3335V4.66683C13.8333 4.44582 13.9211 4.23385 14.0774 4.07757C14.2337 3.92129 14.4456 3.8335 14.6666 3.8335H16.3333C16.5543 3.8335 16.7663 3.92129 16.9226 4.07757C17.0788 4.23385 17.1666 4.44582 17.1666 4.66683V6.3335C17.1666 6.55451 17.0788 6.76647 16.9226 6.92275C16.7663 7.07903 16.5543 7.16683 16.3333 7.16683Z" fill="white"/>
<path d="M6.33331 17.1668H4.66665C4.44563 17.1668 4.23367 17.079 4.07739 16.9228C3.92111 16.7665 3.83331 16.5545 3.83331 16.3335V14.6668C3.83331 14.4458 3.92111 14.2339 4.07739 14.0776C4.23367 13.9213 4.44563 13.8335 4.66665 13.8335H6.33331C6.55433 13.8335 6.76629 13.9213 6.92257 14.0776C7.07885 14.2339 7.16665 14.4458 7.16665 14.6668V16.3335C7.16665 16.5545 7.07885 16.7665 6.92257 16.9228C6.76629 17.079 6.55433 17.1668 6.33331 17.1668Z" fill="white"/>
<path d="M10.5 3.8335V4.66683M15.5 13.8335H17.1666M12.1666 13.8335H10.5V17.1668M10.5 8.00016V10.5002M10.5 10.5002H10.5083M10.5 10.5002H13.8416M13.8333 17.1668H17.1666M3.83331 10.5002H7.16665M17.1666 10.5002H17.175M4.66665 7.16683H6.33331C6.55433 7.16683 6.76629 7.07903 6.92257 6.92275C7.07885 6.76647 7.16665 6.55451 7.16665 6.3335V4.66683C7.16665 4.44582 7.07885 4.23385 6.92257 4.07757C6.76629 3.92129 6.55433 3.8335 6.33331 3.8335H4.66665C4.44563 3.8335 4.23367 3.92129 4.07739 4.07757C3.92111 4.23385 3.83331 4.44582 3.83331 4.66683V6.3335C3.83331 6.55451 3.92111 6.76647 4.07739 6.92275C4.23367 7.07903 4.44563 7.16683 4.66665 7.16683ZM14.6666 7.16683H16.3333C16.5543 7.16683 16.7663 7.07903 16.9226 6.92275C17.0788 6.76647 17.1666 6.55451 17.1666 6.3335V4.66683C17.1666 4.44582 17.0788 4.23385 16.9226 4.07757C16.7663 3.92129 16.5543 3.8335 16.3333 3.8335H14.6666C14.4456 3.8335 14.2337 3.92129 14.0774 4.07757C13.9211 4.23385 13.8333 4.44582 13.8333 4.66683V6.3335C13.8333 6.55451 13.9211 6.76647 14.0774 6.92275C14.2337 7.07903 14.4456 7.16683 14.6666 7.16683ZM4.66665 17.1668H6.33331C6.55433 17.1668 6.76629 17.079 6.92257 16.9228C7.07885 16.7665 7.16665 16.5545 7.16665 16.3335V14.6668C7.16665 14.4458 7.07885 14.2339 6.92257 14.0776C6.76629 13.9213 6.55433 13.8335 6.33331 13.8335H4.66665C4.44563 13.8335 4.23367 13.9213 4.07739 14.0776C3.92111 14.2339 3.83331 14.4458 3.83331 14.6668V16.3335C3.83331 16.5545 3.92111 16.7665 4.07739 16.9228C4.23367 17.079 4.44563 17.1668 4.66665 17.1668Z" stroke="white" stroke-width="2" stroke-linecap="round" stroke-linejoin="round"/>
</svg>
