<svg width="14" height="14" viewBox="0 0 14 14" fill="none" xmlns="http://www.w3.org/2000/svg">
<path d="M5.67253 10.5C5.52021 10.5007 5.37369 10.4363 5.26432 10.3206L2.50948 7.40423C2.45457 7.34574 2.41076 7.27604 2.38055 7.19908C2.35033 7.12212 2.33431 7.03943 2.33339 6.95572C2.33153 6.78665 2.3913 6.62371 2.49957 6.50273C2.60783 6.38175 2.75572 6.31264 2.91068 6.31061C3.06565 6.30858 3.21501 6.3738 3.3259 6.49191L5.67487 8.97756L10.6737 3.68116C10.7847 3.56305 10.9343 3.4979 11.0893 3.50005C11.2444 3.5022 11.3924 3.57147 11.5006 3.69262C11.6089 3.81377 11.6686 3.97687 11.6666 4.14606C11.6647 4.31524 11.6012 4.47664 11.4901 4.59475L6.08074 10.3206C5.97137 10.4363 5.82486 10.5007 5.67253 10.5Z" fill="#03543F"/>
</svg>
