<svg width="18" height="19" viewBox="0 0 18 19" fill="none" xmlns="http://www.w3.org/2000/svg">
<path d="M9.75 4.25H3C2.17157 4.25 1.5 4.92157 1.5 5.75V13.25C1.5 14.0784 2.17157 14.75 3 14.75H9.75C10.5784 14.75 11.25 14.0784 11.25 13.25V5.75C11.25 4.92157 10.5784 4.25 9.75 4.25Z" fill="#6B7280"/>
<path d="M16.125 5.225C16.0114 5.15849 15.8823 5.12306 15.7506 5.12227C15.6189 5.12148 15.4894 5.15536 15.375 5.2205L12.75 6.713V12.3627L15.3488 14.0128C15.4625 14.0848 15.5934 14.1248 15.728 14.1288C15.8625 14.1327 15.9956 14.1004 16.1133 14.0352C16.2311 13.97 16.3291 13.8744 16.3971 13.7582C16.4652 13.6421 16.5007 13.5098 16.5 13.3752V5.87525C16.5001 5.74347 16.4655 5.61399 16.3997 5.49984C16.3339 5.38568 16.2391 5.29089 16.125 5.225Z" fill="#6B7280"/>
</svg>
